<svg xmlns="http://www.w3.org/2000/svg" xmlns:xlink="http://www.w3.org/1999/xlink" version="1.1" class="marks" width="768" height="464" viewBox="0 0 768 464"><rect width="768" height="464" fill="white"/><g fill="none" stroke-miterlimit="10" transform="translate(39,27)"><g class="mark-group role-frame root" role="graphics-object" aria-roledescription="group mark container"><g transform="translate(0,0)"><path class="background" aria-hidden="true" d="M0.5,0.5h600v400h-600Z" stroke="#ddd"/><g><g class="mark-group role-axis" aria-hidden="true"><g transform="translate(0.5,400.5)"><path class="background" aria-hidden="true" d="M0,0h0v0h0Z" pointer-events="none"/><g><g class="mark-rule role-axis-grid" pointer-events="none"><line transform="translate(0,-400)" x2="0" y2="400" stroke="#ddd" stroke-width="1" opacity="1"/><line transform="translate(33,-400)" x2="0" y2="400" stroke="#ddd" stroke-width="1" opacity="1"/><line transform="translate(67,-400)" x2="0" y2="400" stroke="#ddd" stroke-width="1" opacity="1"/><line transform="translate(100,-400)" x2="0" y2="400" stroke="#ddd" stroke-width="1" opacity="1"/><line transform="translate(133,-400)" x2="0" y2="400" stroke="#ddd" stroke-width="1" opacity="1"/><line transform="translate(167,-400)" x2="0" y2="400" stroke="#ddd" stroke-width="1" opacity="1"/><line transform="translate(200,-400)" x2="0" y2="400" stroke="#ddd" stroke-width="1" opacity="1"/><line transform="translate(233,-400)" x2="0" y2="400" stroke="#ddd" stroke-width="1" opacity="1"/><line transform="translate(267,-400)" x2="0" y2="400" stroke="#ddd" stroke-width="1" opacity="1"/><line transform="translate(300,-400)" x2="0" y2="400" stroke="#ddd" stroke-width="1" opacity="1"/><line transform="translate(333,-400)" x2="0" y2="400" stroke="#ddd" stroke-width="1" opacity="1"/><line transform="translate(367,-400)" x2="0" y2="400" stroke="#ddd" stroke-width="1" opacity="1"/><line transform="translate(400,-400)" x2="0" y2="400" stroke="#ddd" stroke-width="1" opacity="1"/><line transform="translate(433,-400)" x2="0" y2="400" stroke="#ddd" stroke-width="1" opacity="1"/><line transform="translate(467,-400)" x2="0" y2="400" stroke="#ddd" stroke-width="1" opacity="1"/><line transform="translate(500,-400)" x2="0" y2="400" stroke="#ddd" stroke-width="1" opacity="1"/><line transform="translate(533,-400)" x2="0" y2="400" stroke="#ddd" stroke-width="1" opacity="1"/><line transform="translate(567,-400)" x2="0" y2="400" stroke="#ddd" stroke-width="1" opacity="1"/><line transform="translate(600,-400)" x2="0" y2="400" stroke="#ddd" stroke-width="1" opacity="1"/></g></g><path class="foreground" aria-hidden="true" d="" pointer-events="none" display="none"/></g></g><g class="mark-group role-axis" aria-hidden="true"><g transform="translate(0.5,0.5)"><path class="background" aria-hidden="true" d="M0,0h0v0h0Z" pointer-events="none"/><g><g class="mark-rule role-axis-grid" pointer-events="none"><line transform="translate(0,400)" x2="600" y2="0" stroke="#ddd" stroke-width="1" opacity="1"/><line transform="translate(0,356)" x2="600" y2="0" stroke="#ddd" stroke-width="1" opacity="1"/><line transform="translate(0,311)" x2="600" y2="0" stroke="#ddd" stroke-width="1" opacity="1"/><line transform="translate(0,267)" x2="600" y2="0" stroke="#ddd" stroke-width="1" opacity="1"/><line transform="translate(0,222)" x2="600" y2="0" stroke="#ddd" stroke-width="1" opacity="1"/><line transform="translate(0,178)" x2="600" y2="0" stroke="#ddd" stroke-width="1" opacity="1"/><line transform="translate(0,133)" x2="600" y2="0" stroke="#ddd" stroke-width="1" opacity="1"/><line transform="translate(0,89)" x2="600" y2="0" stroke="#ddd" stroke-width="1" opacity="1"/><line transform="translate(0,44)" x2="600" y2="0" stroke="#ddd" stroke-width="1" opacity="1"/><line transform="translate(0,0)" x2="600" y2="0" stroke="#ddd" stroke-width="1" opacity="1"/></g></g><path class="foreground" aria-hidden="true" d="" pointer-events="none" display="none"/></g></g><g class="mark-group role-axis" role="graphics-symbol" aria-roledescription="axis" aria-label="X-axis titled 'GDP' for a linear scale with values from −5 to 4"><g transform="translate(0.5,400.5)"><path class="background" aria-hidden="true" d="M0,0h0v0h0Z" pointer-events="none"/><g><g class="mark-rule role-axis-tick" pointer-events="none"><line transform="translate(0,0)" x2="0" y2="5" stroke="#888" stroke-width="1" opacity="1"/><line transform="translate(33,0)" x2="0" y2="5" stroke="#888" stroke-width="1" opacity="1"/><line transform="translate(67,0)" x2="0" y2="5" stroke="#888" stroke-width="1" opacity="1"/><line transform="translate(100,0)" x2="0" y2="5" stroke="#888" stroke-width="1" opacity="1"/><line transform="translate(133,0)" x2="0" y2="5" stroke="#888" stroke-width="1" opacity="1"/><line transform="translate(167,0)" x2="0" y2="5" stroke="#888" stroke-width="1" opacity="1"/><line transform="translate(200,0)" x2="0" y2="5" stroke="#888" stroke-width="1" opacity="1"/><line transform="translate(233,0)" x2="0" y2="5" stroke="#888" stroke-width="1" opacity="1"/><line transform="translate(267,0)" x2="0" y2="5" stroke="#888" stroke-width="1" opacity="1"/><line transform="translate(300,0)" x2="0" y2="5" stroke="#888" stroke-width="1" opacity="1"/><line transform="translate(333,0)" x2="0" y2="5" stroke="#888" stroke-width="1" opacity="1"/><line transform="translate(367,0)" x2="0" y2="5" stroke="#888" stroke-width="1" opacity="1"/><line transform="translate(400,0)" x2="0" y2="5" stroke="#888" stroke-width="1" opacity="1"/><line transform="translate(433,0)" x2="0" y2="5" stroke="#888" stroke-width="1" opacity="1"/><line transform="translate(467,0)" x2="0" y2="5" stroke="#888" stroke-width="1" opacity="1"/><line transform="translate(500,0)" x2="0" y2="5" stroke="#888" stroke-width="1" opacity="1"/><line transform="translate(533,0)" x2="0" y2="5" stroke="#888" stroke-width="1" opacity="1"/><line transform="translate(567,0)" x2="0" y2="5" stroke="#888" stroke-width="1" opacity="1"/><line transform="translate(600,0)" x2="0" y2="5" stroke="#888" stroke-width="1" opacity="1"/></g><g class="mark-text role-axis-label" pointer-events="none"><text text-anchor="start" transform="translate(0,15)" font-family="sans-serif" font-size="10px" fill="#000" opacity="1">−5.0</text><text text-anchor="middle" transform="translate(33.33333333333333,15)" font-family="sans-serif" font-size="10px" fill="#000" opacity="1">−4.5</text><text text-anchor="middle" transform="translate(66.66666666666666,15)" font-family="sans-serif" font-size="10px" fill="#000" opacity="1">−4.0</text><text text-anchor="middle" transform="translate(100,15)" font-family="sans-serif" font-size="10px" fill="#000" opacity="1">−3.5</text><text text-anchor="middle" transform="translate(133.33333333333331,15)" font-family="sans-serif" font-size="10px" fill="#000" opacity="1">−3.0</text><text text-anchor="middle" transform="translate(166.66666666666669,15)" font-family="sans-serif" font-size="10px" fill="#000" opacity="1">−2.5</text><text text-anchor="middle" transform="translate(200,15)" font-family="sans-serif" font-size="10px" fill="#000" opacity="1">−2.0</text><text text-anchor="middle" transform="translate(233.33333333333334,15)" font-family="sans-serif" font-size="10px" fill="#000" opacity="1">−1.5</text><text text-anchor="middle" transform="translate(266.66666666666663,15)" font-family="sans-serif" font-size="10px" fill="#000" opacity="1">−1.0</text><text text-anchor="middle" transform="translate(300,15)" font-family="sans-serif" font-size="10px" fill="#000" opacity="1">−0.5</text><text text-anchor="middle" transform="translate(333.33333333333337,15)" font-family="sans-serif" font-size="10px" fill="#000" opacity="1">0.0</text><text text-anchor="middle" transform="translate(366.6666666666667,15)" font-family="sans-serif" font-size="10px" fill="#000" opacity="1">0.5</text><text text-anchor="middle" transform="translate(400,15)" font-family="sans-serif" font-size="10px" fill="#000" opacity="1">1.0</text><text text-anchor="middle" transform="translate(433.3333333333333,15)" font-family="sans-serif" font-size="10px" fill="#000" opacity="1">1.5</text><text text-anchor="middle" transform="translate(466.6666666666667,15)" font-family="sans-serif" font-size="10px" fill="#000" opacity="1">2.0</text><text text-anchor="middle" transform="translate(500,15)" font-family="sans-serif" font-size="10px" fill="#000" opacity="1">2.5</text><text text-anchor="middle" transform="translate(533.3333333333333,15)" font-family="sans-serif" font-size="10px" fill="#000" opacity="1">3.0</text><text text-anchor="middle" transform="translate(566.6666666666666,15)" font-family="sans-serif" font-size="10px" fill="#000" opacity="1">3.5</text><text text-anchor="end" transform="translate(600,15)" font-family="sans-serif" font-size="10px" fill="#000" opacity="1">4.0</text></g><g class="mark-rule role-axis-domain" pointer-events="none"><line transform="translate(0,0)" x2="600" y2="0" stroke="#888" stroke-width="1" opacity="1"/></g><g class="mark-text role-axis-title" pointer-events="none"><text text-anchor="middle" transform="translate(300,30)" font-family="sans-serif" font-size="11px" font-weight="bold" fill="#000" opacity="1">GDP</text></g></g><path class="foreground" aria-hidden="true" d="" pointer-events="none" display="none"/></g></g><g class="mark-group role-axis" role="graphics-symbol" aria-roledescription="axis" aria-label="Y-axis titled 'Unemployment Rate' for a linear scale with values from 0 to 18"><g transform="translate(0.5,0.5)"><path class="background" aria-hidden="true" d="M0,0h0v0h0Z" pointer-events="none"/><g><g class="mark-rule role-axis-tick" pointer-events="none"><line transform="translate(0,400)" x2="-5" y2="0" stroke="#888" stroke-width="1" opacity="1"/><line transform="translate(0,356)" x2="-5" y2="0" stroke="#888" stroke-width="1" opacity="1"/><line transform="translate(0,311)" x2="-5" y2="0" stroke="#888" stroke-width="1" opacity="1"/><line transform="translate(0,267)" x2="-5" y2="0" stroke="#888" stroke-width="1" opacity="1"/><line transform="translate(0,222)" x2="-5" y2="0" stroke="#888" stroke-width="1" opacity="1"/><line transform="translate(0,178)" x2="-5" y2="0" stroke="#888" stroke-width="1" opacity="1"/><line transform="translate(0,133)" x2="-5" y2="0" stroke="#888" stroke-width="1" opacity="1"/><line transform="translate(0,89)" x2="-5" y2="0" stroke="#888" stroke-width="1" opacity="1"/><line transform="translate(0,44)" x2="-5" y2="0" stroke="#888" stroke-width="1" opacity="1"/><line transform="translate(0,0)" x2="-5" y2="0" stroke="#888" stroke-width="1" opacity="1"/></g><g class="mark-text role-axis-label" pointer-events="none"><text text-anchor="end" transform="translate(-7,403)" font-family="sans-serif" font-size="10px" fill="#000" opacity="1">0</text><text text-anchor="end" transform="translate(-7,358.55555555555554)" font-family="sans-serif" font-size="10px" fill="#000" opacity="1">2</text><text text-anchor="end" transform="translate(-7,314.11111111111114)" font-family="sans-serif" font-size="10px" fill="#000" opacity="1">4</text><text text-anchor="end" transform="translate(-7,269.6666666666667)" font-family="sans-serif" font-size="10px" fill="#000" opacity="1">6</text><text text-anchor="end" transform="translate(-7,225.22222222222223)" font-family="sans-serif" font-size="10px" fill="#000" opacity="1">8</text><text text-anchor="end" transform="translate(-7,180.77777777777777)" font-family="sans-serif" font-size="10px" fill="#000" opacity="1">10</text><text text-anchor="end" transform="translate(-7,136.33333333333334)" font-family="sans-serif" font-size="10px" fill="#000" opacity="1">12</text><text text-anchor="end" transform="translate(-7,91.88888888888889)" font-family="sans-serif" font-size="10px" fill="#000" opacity="1">14</text><text text-anchor="end" transform="translate(-7,47.444444444444464)" font-family="sans-serif" font-size="10px" fill="#000" opacity="1">16</text><text text-anchor="end" transform="translate(-7,3)" font-family="sans-serif" font-size="10px" fill="#000" opacity="1">18</text></g><g class="mark-rule role-axis-domain" pointer-events="none"><line transform="translate(0,400)" x2="0" y2="-400" stroke="#888" stroke-width="1" opacity="1"/></g><g class="mark-text role-axis-title" pointer-events="none"><text text-anchor="middle" transform="translate(-22.123046875,200) rotate(-90) translate(0,-2)" font-family="sans-serif" font-size="11px" font-weight="bold" fill="#000" opacity="1">Unemployment Rate</text></g></g><path class="foreground" aria-hidden="true" d="" pointer-events="none" display="none"/></g></g><g class="mark-symbol role-mark marks" clip-path="url(#clip1)" role="graphics-object" aria-roledescription="symbol mark container"><path aria-label="GDP: −4.06; Unemployment Rate: 15.5; Retention Outcome: Dropout; Number of Students: 139; Unemployment rate: 15.5; Target: Dropout; Count: 139" role="graphics-symbol" aria-roledescription="circle" transform="translate(62.66666666666669,55.555555555555536)" d="M7.074,0A7.074,7.074,0,1,1,-7.074,0A7.074,7.074,0,1,1,7.074,0" fill="#4c78a8" stroke-width="2" opacity="0.7"/><path aria-label="GDP: −4.06; Unemployment Rate: 15.5; Retention Outcome: Enrolled; Number of Students: 69; Unemployment rate: 15.5; Target: Enrolled; Count: 69" role="graphics-symbol" aria-roledescription="circle" transform="translate(62.66666666666669,55.555555555555536)" d="M5.034,0A5.034,5.034,0,1,1,-5.034,0A5.034,5.034,0,1,1,5.034,0" fill="#f58518" stroke-width="2" opacity="0.7"/><path aria-label="GDP: −4.06; Unemployment Rate: 15.5; Retention Outcome: Graduate; Number of Students: 189; Unemployment rate: 15.5; Target: Graduate; Count: 189" role="graphics-symbol" aria-roledescription="circle" transform="translate(62.66666666666669,55.555555555555536)" d="M8.226,0A8.226,8.226,0,1,1,-8.226,0A8.226,8.226,0,1,1,8.226,0" fill="#e45756" stroke-width="2" opacity="0.7"/><path aria-label="GDP: −3.12; Unemployment Rate: 9.4; Retention Outcome: Dropout; Number of Students: 174; Unemployment rate: 9.4; Target: Dropout; Count: 174" role="graphics-symbol" aria-roledescription="circle" transform="translate(125.33333333333333,191.1111111111111)" d="M7.898,0A7.898,7.898,0,1,1,-7.898,0A7.898,7.898,0,1,1,7.898,0" fill="#4c78a8" stroke-width="2" opacity="0.7"/><path aria-label="GDP: −3.12; Unemployment Rate: 9.4; Retention Outcome: Enrolled; Number of Students: 109; Unemployment rate: 9.4; Target: Enrolled; Count: 109" role="graphics-symbol" aria-roledescription="circle" transform="translate(125.33333333333333,191.1111111111111)" d="M6.281,0A6.281,6.281,0,1,1,-6.281,0A6.281,6.281,0,1,1,6.281,0" fill="#f58518" stroke-width="2" opacity="0.7"/><path aria-label="GDP: −3.12; Unemployment Rate: 9.4; Retention Outcome: Graduate; Number of Students: 250; Unemployment rate: 9.4; Target: Graduate; Count: 250" role="graphics-symbol" aria-roledescription="circle" transform="translate(125.33333333333333,191.1111111111111)" d="M9.444,0A9.444,9.444,0,1,1,-9.444,0A9.444,9.444,0,1,1,9.444,0" fill="#e45756" stroke-width="2" opacity="0.7"/><path aria-label="GDP: −1.7; Unemployment Rate: 12.7; Retention Outcome: Dropout; Number of Students: 141; Unemployment rate: 12.7; Target: Dropout; Count: 141" role="graphics-symbol" aria-roledescription="circle" transform="translate(219.99999999999997,117.7777777777778)" d="M7.123,0A7.123,7.123,0,1,1,-7.123,0A7.123,7.123,0,1,1,7.123,0" fill="#4c78a8" stroke-width="2" opacity="0.7"/><path aria-label="GDP: −1.7; Unemployment Rate: 12.7; Retention Outcome: Enrolled; Number of Students: 63; Unemployment rate: 12.7; Target: Enrolled; Count: 63" role="graphics-symbol" aria-roledescription="circle" transform="translate(219.99999999999997,117.7777777777778)" d="M4.819,0A4.819,4.819,0,1,1,-4.819,0A4.819,4.819,0,1,1,4.819,0" fill="#f58518" stroke-width="2" opacity="0.7"/><path aria-label="GDP: −1.7; Unemployment Rate: 12.7; Retention Outcome: Graduate; Number of Students: 215; Unemployment rate: 12.7; Target: Graduate; Count: 215" role="graphics-symbol" aria-roledescription="circle" transform="translate(219.99999999999997,117.7777777777778)" d="M8.766,0A8.766,8.766,0,1,1,-8.766,0A8.766,8.766,0,1,1,8.766,0" fill="#e45756" stroke-width="2" opacity="0.7"/><path aria-label="GDP: −0.92; Unemployment Rate: 16.2; Retention Outcome: Dropout; Number of Students: 139; Unemployment rate: 16.2; Target: Dropout; Count: 139" role="graphics-symbol" aria-roledescription="circle" transform="translate(272,40.000000000000036)" d="M7.074,0A7.074,7.074,0,1,1,-7.074,0A7.074,7.074,0,1,1,7.074,0" fill="#4c78a8" stroke-width="2" opacity="0.7"/><path aria-label="GDP: −0.92; Unemployment Rate: 16.2; Retention Outcome: Enrolled; Number of Students: 46; Unemployment rate: 16.2; Target: Enrolled; Count: 46" role="graphics-symbol" aria-roledescription="circle" transform="translate(272,40.000000000000036)" d="M4.151,0A4.151,4.151,0,1,1,-4.151,0A4.151,4.151,0,1,1,4.151,0" fill="#f58518" stroke-width="2" opacity="0.7"/><path aria-label="GDP: −0.92; Unemployment Rate: 16.2; Retention Outcome: Graduate; Number of Students: 177; Unemployment rate: 16.2; Target: Graduate; Count: 177" role="graphics-symbol" aria-roledescription="circle" transform="translate(272,40.000000000000036)" d="M7.965,0A7.965,7.965,0,1,1,-7.965,0A7.965,7.965,0,1,1,7.965,0" fill="#e45756" stroke-width="2" opacity="0.7"/><path aria-label="GDP: 0.32; Unemployment Rate: 7.6; Retention Outcome: Dropout; Number of Students: 202; Unemployment rate: 7.6; Target: Dropout; Count: 202" role="graphics-symbol" aria-roledescription="circle" transform="translate(354.6666666666667,231.1111111111111)" d="M8.501,0A8.501,8.501,0,1,1,-8.501,0A8.501,8.501,0,1,1,8.501,0" fill="#4c78a8" stroke-width="2" opacity="0.7"/><path aria-label="GDP: 0.32; Unemployment Rate: 7.6; Retention Outcome: Enrolled; Number of Students: 119; Unemployment rate: 7.6; Target: Enrolled; Count: 119" role="graphics-symbol" aria-roledescription="circle" transform="translate(354.6666666666667,231.1111111111111)" d="M6.556,0A6.556,6.556,0,1,1,-6.556,0A6.556,6.556,0,1,1,6.556,0" fill="#f58518" stroke-width="2" opacity="0.7"/><path aria-label="GDP: 0.32; Unemployment Rate: 7.6; Retention Outcome: Graduate; Number of Students: 250; Unemployment rate: 7.6; Target: Graduate; Count: 250" role="graphics-symbol" aria-roledescription="circle" transform="translate(354.6666666666667,231.1111111111111)" d="M9.444,0A9.444,9.444,0,1,1,-9.444,0A9.444,9.444,0,1,1,9.444,0" fill="#e45756" stroke-width="2" opacity="0.7"/><path aria-label="GDP: 0.79; Unemployment Rate: 13.9; Retention Outcome: Dropout; Number of Students: 118; Unemployment rate: 13.9; Target: Dropout; Count: 118" role="graphics-symbol" aria-roledescription="circle" transform="translate(386,91.1111111111111)" d="M6.529,0A6.529,6.529,0,1,1,-6.529,0A6.529,6.529,0,1,1,6.529,0" fill="#4c78a8" stroke-width="2" opacity="0.7"/><path aria-label="GDP: 0.79; Unemployment Rate: 13.9; Retention Outcome: Enrolled; Number of Students: 64; Unemployment rate: 13.9; Target: Enrolled; Count: 64" role="graphics-symbol" aria-roledescription="circle" transform="translate(386,91.1111111111111)" d="M4.856,0A4.856,4.856,0,1,1,-4.856,0A4.856,4.856,0,1,1,4.856,0" fill="#f58518" stroke-width="2" opacity="0.7"/><path aria-label="GDP: 0.79; Unemployment Rate: 13.9; Retention Outcome: Graduate; Number of Students: 208; Unemployment rate: 13.9; Target: Graduate; Count: 208" role="graphics-symbol" aria-roledescription="circle" transform="translate(386,91.1111111111111)" d="M8.624,0A8.624,8.624,0,1,1,-8.624,0A8.624,8.624,0,1,1,8.624,0" fill="#e45756" stroke-width="2" opacity="0.7"/><path aria-label="GDP: 1.74; Unemployment Rate: 10.8; Retention Outcome: Dropout; Number of Students: 182; Unemployment rate: 10.8; Target: Dropout; Count: 182" role="graphics-symbol" aria-roledescription="circle" transform="translate(449.33333333333337,159.99999999999997)" d="M8.075,0A8.075,8.075,0,1,1,-8.075,0A8.075,8.075,0,1,1,8.075,0" fill="#4c78a8" stroke-width="2" opacity="0.7"/><path aria-label="GDP: 1.74; Unemployment Rate: 10.8; Retention Outcome: Enrolled; Number of Students: 90; Unemployment rate: 10.8; Target: Enrolled; Count: 90" role="graphics-symbol" aria-roledescription="circle" transform="translate(449.33333333333337,159.99999999999997)" d="M5.723,0A5.723,5.723,0,1,1,-5.723,0A5.723,5.723,0,1,1,5.723,0" fill="#f58518" stroke-width="2" opacity="0.7"/><path aria-label="GDP: 1.74; Unemployment Rate: 10.8; Retention Outcome: Graduate; Number of Students: 253; Unemployment rate: 10.8; Target: Graduate; Count: 253" role="graphics-symbol" aria-roledescription="circle" transform="translate(449.33333333333337,159.99999999999997)" d="M9.5,0A9.5,9.5,0,1,1,-9.5,0A9.5,9.5,0,1,1,9.5,0" fill="#e45756" stroke-width="2" opacity="0.7"/><path aria-label="GDP: 1.79; Unemployment Rate: 12.4; Retention Outcome: Dropout; Number of Students: 107; Unemployment rate: 12.4; Target: Dropout; Count: 107" role="graphics-symbol" aria-roledescription="circle" transform="translate(452.6666666666667,124.44444444444444)" d="M6.225,0A6.225,6.225,0,1,1,-6.225,0A6.225,6.225,0,1,1,6.225,0" fill="#4c78a8" stroke-width="2" opacity="0.7"/><path aria-label="GDP: 1.79; Unemployment Rate: 12.4; Retention Outcome: Enrolled; Number of Students: 90; Unemployment rate: 12.4; Target: Enrolled; Count: 90" role="graphics-symbol" aria-roledescription="circle" transform="translate(452.6666666666667,124.44444444444444)" d="M5.723,0A5.723,5.723,0,1,1,-5.723,0A5.723,5.723,0,1,1,5.723,0" fill="#f58518" stroke-width="2" opacity="0.7"/><path aria-label="GDP: 1.79; Unemployment Rate: 12.4; Retention Outcome: Graduate; Number of Students: 248; Unemployment rate: 12.4; Target: Graduate; Count: 248" role="graphics-symbol" aria-roledescription="circle" transform="translate(452.6666666666667,124.44444444444444)" d="M9.407,0A9.407,9.407,0,1,1,-9.407,0A9.407,9.407,0,1,1,9.407,0" fill="#e45756" stroke-width="2" opacity="0.7"/><path aria-label="GDP: 2.02; Unemployment Rate: 11.1; Retention Outcome: Dropout; Number of Students: 117; Unemployment rate: 11.1; Target: Dropout; Count: 117" role="graphics-symbol" aria-roledescription="circle" transform="translate(467.99999999999994,153.33333333333331)" d="M6.502,0A6.502,6.502,0,1,1,-6.502,0A6.502,6.502,0,1,1,6.502,0" fill="#4c78a8" stroke-width="2" opacity="0.7"/><path aria-label="GDP: 2.02; Unemployment Rate: 11.1; Retention Outcome: Enrolled; Number of Students: 67; Unemployment rate: 11.1; Target: Enrolled; Count: 67" role="graphics-symbol" aria-roledescription="circle" transform="translate(467.99999999999994,153.33333333333331)" d="M4.963,0A4.963,4.963,0,1,1,-4.963,0A4.963,4.963,0,1,1,4.963,0" fill="#f58518" stroke-width="2" opacity="0.7"/><path aria-label="GDP: 2.02; Unemployment Rate: 11.1; Retention Outcome: Graduate; Number of Students: 230; Unemployment rate: 11.1; Target: Graduate; Count: 230" role="graphics-symbol" aria-roledescription="circle" transform="translate(467.99999999999994,153.33333333333331)" d="M9.063,0A9.063,9.063,0,1,1,-9.063,0A9.063,9.063,0,1,1,9.063,0" fill="#e45756" stroke-width="2" opacity="0.7"/><path aria-label="GDP: 3.51; Unemployment Rate: 8.9; Retention Outcome: Dropout; Number of Students: 102; Unemployment rate: 8.9; Target: Dropout; Count: 102" role="graphics-symbol" aria-roledescription="circle" transform="translate(567.3333333333333,202.22222222222223)" d="M6.081,0A6.081,6.081,0,1,1,-6.081,0A6.081,6.081,0,1,1,6.081,0" fill="#4c78a8" stroke-width="2" opacity="0.7"/><path aria-label="GDP: 3.51; Unemployment Rate: 8.9; Retention Outcome: Enrolled; Number of Students: 77; Unemployment rate: 8.9; Target: Enrolled; Count: 77" role="graphics-symbol" aria-roledescription="circle" transform="translate(567.3333333333333,202.22222222222223)" d="M5.307,0A5.307,5.307,0,1,1,-5.307,0A5.307,5.307,0,1,1,5.307,0" fill="#f58518" stroke-width="2" opacity="0.7"/><path aria-label="GDP: 3.51; Unemployment Rate: 8.9; Retention Outcome: Graduate; Number of Students: 189; Unemployment rate: 8.9; Target: Graduate; Count: 189" role="graphics-symbol" aria-roledescription="circle" transform="translate(567.3333333333333,202.22222222222223)" d="M8.226,0A8.226,8.226,0,1,1,-8.226,0A8.226,8.226,0,1,1,8.226,0" fill="#e45756" stroke-width="2" opacity="0.7"/></g><g class="mark-group role-legend" role="graphics-symbol" aria-roledescription="legend" aria-label="Symbol legend titled 'Retention Outcome' for fill color with 3 values: Dropout, Enrolled, Graduate"><g transform="translate(618,0)"><path class="background" aria-hidden="true" d="M0,0h102v53h-102Z" pointer-events="none"/><g><g class="mark-group role-legend-entry"><g transform="translate(0,16)"><path class="background" aria-hidden="true" d="M0,0h0v0h0Z" pointer-events="none"/><g><g class="mark-group role-scope" role="graphics-object" aria-roledescription="group mark container"><g transform="translate(0,0)"><path class="background" aria-hidden="true" d="M0,0h57.6943359375v11h-57.6943359375Z" pointer-events="none" opacity="1"/><g><g class="mark-symbol role-legend-symbol" pointer-events="none"><path transform="translate(6,6)" d="M5,0A5,5,0,1,1,-5,0A5,5,0,1,1,5,0" fill="#4c78a8" stroke-width="1.5" opacity="0.7"/></g><g class="mark-text role-legend-label" pointer-events="none"><text text-anchor="start" transform="translate(16,9)" font-family="sans-serif" font-size="10px" fill="#000" opacity="1">Dropout</text></g></g><path class="foreground" aria-hidden="true" d="" pointer-events="none" display="none"/></g><g transform="translate(0,13)"><path class="background" aria-hidden="true" d="M0,0h57.6943359375v11h-57.6943359375Z" pointer-events="none" opacity="1"/><g><g class="mark-symbol role-legend-symbol" pointer-events="none"><path transform="translate(6,6)" d="M5,0A5,5,0,1,1,-5,0A5,5,0,1,1,5,0" fill="#f58518" stroke-width="1.5" opacity="0.7"/></g><g class="mark-text role-legend-label" pointer-events="none"><text text-anchor="start" transform="translate(16,9)" font-family="sans-serif" font-size="10px" fill="#000" opacity="1">Enrolled</text></g></g><path class="foreground" aria-hidden="true" d="" pointer-events="none" display="none"/></g><g transform="translate(0,26)"><path class="background" aria-hidden="true" d="M0,0h57.6943359375v11h-57.6943359375Z" pointer-events="none" opacity="1"/><g><g class="mark-symbol role-legend-symbol" pointer-events="none"><path transform="translate(6,6)" d="M5,0A5,5,0,1,1,-5,0A5,5,0,1,1,5,0" fill="#e45756" stroke-width="1.5" opacity="0.7"/></g><g class="mark-text role-legend-label" pointer-events="none"><text text-anchor="start" transform="translate(16,9)" font-family="sans-serif" font-size="10px" fill="#000" opacity="1">Graduate</text></g></g><path class="foreground" aria-hidden="true" d="" pointer-events="none" display="none"/></g></g></g><path class="foreground" aria-hidden="true" d="" pointer-events="none" display="none"/></g></g><g class="mark-text role-legend-title" pointer-events="none"><text text-anchor="start" transform="translate(0,9)" font-family="sans-serif" font-size="11px" font-weight="bold" fill="#000" opacity="1">Retention Outcome</text></g></g><path class="foreground" aria-hidden="true" d="" pointer-events="none" display="none"/></g></g><g class="mark-group role-legend" role="graphics-symbol" aria-roledescription="legend" aria-label="Symbol legend titled 'Number of Students' for size with values from 0 to 253"><g transform="translate(618,61)"><path class="background" aria-hidden="true" d="M0,0h106v128h-106Z" pointer-events="none"/><g><g class="mark-group role-legend-entry"><g transform="translate(0,16)"><path class="background" aria-hidden="true" d="M0,0h0v0h0Z" pointer-events="none"/><g><g class="mark-group role-scope" role="graphics-object" aria-roledescription="group mark container"><g transform="translate(0,0)"><path class="background" aria-hidden="true" d="M0,0h41.6845703125v10h-41.6845703125Z" pointer-events="none" opacity="1"/><g><g class="mark-symbol role-legend-symbol" pointer-events="none"><path transform="translate(10.5,5)" d="M1,0A1,1,0,1,1,-1,0A1,1,0,1,1,1,0" fill="black" fill-opacity="0.7" stroke-width="1.5" opacity="0.7"/></g><g class="mark-text role-legend-label" pointer-events="none"><text text-anchor="start" transform="translate(25,8)" font-family="sans-serif" font-size="10px" fill="#000" opacity="1">0</text></g></g><path class="foreground" aria-hidden="true" d="" pointer-events="none" display="none"/></g><g transform="translate(0,13)"><path class="background" aria-hidden="true" d="M0,0h41.6845703125v11.317214370511223h-41.6845703125Z" pointer-events="none" opacity="1"/><g><g class="mark-symbol role-legend-symbol" pointer-events="none"><path transform="translate(10.5,5.5)" d="M4.317,0A4.317,4.317,0,1,1,-4.317,0A4.317,4.317,0,1,1,4.317,0" fill="black" fill-opacity="0.7" stroke-width="1.5" opacity="0.7"/></g><g class="mark-text role-legend-label" pointer-events="none"><text text-anchor="start" transform="translate(25,8.5)" font-family="sans-serif" font-size="10px" fill="#000" opacity="1">50</text></g></g><path class="foreground" aria-hidden="true" d="" pointer-events="none" display="none"/></g><g transform="translate(0,28)"><path class="background" aria-hidden="true" d="M0,0h41.6845703125v14.523012522143489h-41.6845703125Z" pointer-events="none" opacity="1"/><g><g class="mark-symbol role-legend-symbol" pointer-events="none"><path transform="translate(10.5,7)" d="M6.023,0A6.023,6.023,0,1,1,-6.023,0A6.023,6.023,0,1,1,6.023,0" fill="black" fill-opacity="0.7" stroke-width="1.5" opacity="0.7"/></g><g class="mark-text role-legend-label" pointer-events="none"><text text-anchor="start" transform="translate(25,10)" font-family="sans-serif" font-size="10px" fill="#000" opacity="1">100</text></g></g><path class="foreground" aria-hidden="true" d="" pointer-events="none" display="none"/></g><g transform="translate(0,46)"><path class="background" aria-hidden="true" d="M0,0h41.6845703125v17.342684778937866h-41.6845703125Z" pointer-events="none" opacity="1"/><g><g class="mark-symbol role-legend-symbol" pointer-events="none"><path transform="translate(10.5,8.5)" d="M7.343,0A7.343,7.343,0,1,1,-7.343,0A7.343,7.343,0,1,1,7.343,0" fill="black" fill-opacity="0.7" stroke-width="1.5" opacity="0.7"/></g><g class="mark-text role-legend-label" pointer-events="none"><text text-anchor="start" transform="translate(25,11.5)" font-family="sans-serif" font-size="10px" fill="#000" opacity="1">150</text></g></g><path class="foreground" aria-hidden="true" d="" pointer-events="none" display="none"/></g><g transform="translate(0,67)"><path class="background" aria-hidden="true" d="M0,0h41.6845703125v19.458921898433303h-41.6845703125Z" pointer-events="none" opacity="1"/><g><g class="mark-symbol role-legend-symbol" pointer-events="none"><path transform="translate(10.5,9.5)" d="M8.459,0A8.459,8.459,0,1,1,-8.459,0A8.459,8.459,0,1,1,8.459,0" fill="black" fill-opacity="0.7" stroke-width="1.5" opacity="0.7"/></g><g class="mark-text role-legend-label" pointer-events="none"><text text-anchor="start" transform="translate(25,12.5)" font-family="sans-serif" font-size="10px" fill="#000" opacity="1">200</text></g></g><path class="foreground" aria-hidden="true" d="" pointer-events="none" display="none"/></g><g transform="translate(0,90)"><path class="background" aria-hidden="true" d="M0,0h41.6845703125v21.44413572566293h-41.6845703125Z" pointer-events="none" opacity="1"/><g><g class="mark-symbol role-legend-symbol" pointer-events="none"><path transform="translate(10.5,10.5)" d="M9.444,0A9.444,9.444,0,1,1,-9.444,0A9.444,9.444,0,1,1,9.444,0" fill="black" fill-opacity="0.7" stroke-width="1.5" opacity="0.7"/></g><g class="mark-text role-legend-label" pointer-events="none"><text text-anchor="start" transform="translate(25,13.5)" font-family="sans-serif" font-size="10px" fill="#000" opacity="1">250</text></g></g><path class="foreground" aria-hidden="true" d="" pointer-events="none" display="none"/></g></g></g><path class="foreground" aria-hidden="true" d="" pointer-events="none" display="none"/></g></g><g class="mark-text role-legend-title" pointer-events="none"><text text-anchor="start" transform="translate(0,9)" font-family="sans-serif" font-size="11px" font-weight="bold" fill="#000" opacity="1">Number of Students</text></g></g><path class="foreground" aria-hidden="true" d="" pointer-events="none" display="none"/></g></g><g class="mark-group role-title"><g transform="translate(300,-22)"><path class="background" aria-hidden="true" d="M0,0h0v0h0Z" pointer-events="none"/><g><g class="mark-text role-title-text" role="graphics-symbol" aria-roledescription="title" aria-label="Title text 'Economic indications on Students vs Retention (Bubble Chart)'" pointer-events="none"><text text-anchor="middle" transform="translate(0,10)" font-family="sans-serif" font-size="13px" font-weight="bold" fill="#000" opacity="1">Economic indications on Students vs Retention (Bubble Chart)</text></g></g><path class="foreground" aria-hidden="true" d="" pointer-events="none" display="none"/></g></g></g><path class="foreground" aria-hidden="true" d="" display="none"/></g></g></g><defs><clipPath id="clip1"><rect x="0" y="0" width="600" height="400"/></clipPath></defs></svg>